<svg width="13" height="28" viewBox="0 0 13 28" fill="none" xmlns="http://www.w3.org/2000/svg">
<path fill-rule="evenodd" clip-rule="evenodd" d="M0.496352 12.5413C0.178567 12.9216 4.48227e-05 13.4373 4.48227e-05 13.9751C4.48227e-05 14.5128 0.178567 15.0285 0.496352 15.4088L10.0856 26.8809C10.242 27.0746 10.429 27.2291 10.6358 27.3354C10.8426 27.4416 11.0651 27.4976 11.2902 27.4999C11.5152 27.5023 11.7384 27.451 11.9468 27.349C12.1551 27.247 12.3444 27.0964 12.5035 26.906C12.6627 26.7156 12.7885 26.4892 12.8738 26.24C12.959 25.9907 13.0019 25.7237 12.9999 25.4544C12.998 25.1852 12.9512 24.9191 12.8624 24.6716C12.7735 24.4242 12.6444 24.2005 12.4825 24.0134L4.09169 13.9751L12.4825 3.93677C12.7913 3.5543 12.9621 3.04204 12.9583 2.51032C12.9544 1.9786 12.7761 1.46997 12.4619 1.09397C12.1476 0.717973 11.7224 0.504697 11.278 0.500077C10.8335 0.495456 10.4053 0.699861 10.0856 1.06927L0.496352 12.5413Z" fill="black"/>
</svg>
