<svg width="57" height="15" viewBox="0 0 57 15" fill="none" xmlns="http://www.w3.org/2000/svg">
<path d="M12.07 6.015V0.614999H14.515V14.31H12.07V8.265H11.275V14.25H8.86V0.645H11.275V6.015H12.07ZM8.41 4.95C8.41 6.675 7.435 7.98 5.995 8.46V10.815H8.2V13.05L1.105 13.275V10.815H3.565V8.52C2.035 8.07 0.985 6.72 0.985 4.95C0.985 2.76 2.575 1.26 4.705 1.26C6.835 1.26 8.41 2.76 8.41 4.95ZM4.705 3.405C3.97 3.405 3.355 4.035 3.355 4.95C3.355 5.895 3.97 6.51 4.705 6.51C5.44 6.51 6.04 5.895 6.04 4.95C6.04 4.035 5.44 3.405 4.705 3.405ZM28.3594 14.31H25.7194V0.63H28.3594V14.31ZM20.2894 13.92C17.7844 13.92 16.2094 11.88 16.2094 7.365C16.2094 2.85 17.7844 0.765 20.2894 0.765C22.8094 0.765 24.3844 2.85 24.3844 7.365C24.3844 11.88 22.8094 13.92 20.2894 13.92ZM20.2894 11.655C21.1444 11.655 21.8494 10.575 21.8494 7.35C21.8494 4.11 21.1444 3.03 20.2894 3.03C19.4494 3.03 18.7744 4.11 18.7744 7.35C18.7744 10.575 19.4494 11.655 20.2894 11.655ZM39.8259 5.85V0.63H42.4659V14.31H39.8259V8.22H38.1609V5.85H39.8259ZM37.5309 8.205H33.1659V11.295H38.2509V13.35L30.5709 13.635V6.045H34.9359V3.33H30.5709V1.08H37.5309V8.205ZM56.5723 8.205H53.9323V0.63H56.5723V8.205ZM53.1073 7.365L44.8273 7.605V0.809999H47.4523V5.37H53.1073V7.365ZM51.0823 14.655C47.2723 14.655 45.4873 13.575 45.4873 11.61C45.4873 9.645 47.2573 8.505 51.0823 8.505C54.9223 8.505 56.6923 9.645 56.6923 11.61C56.6923 13.575 54.9073 14.655 51.0823 14.655ZM51.0823 12.495C53.1373 12.495 53.9023 12.18 53.9023 11.61C53.9023 11.025 53.1523 10.68 51.0823 10.68C49.0273 10.68 48.2773 11.025 48.2773 11.61C48.2773 12.18 49.0423 12.495 51.0823 12.495Z" fill="#2F53FF"/>
</svg>
