<svg width="1024" height="1024" viewBox="0 0 1024 1024" fill="none" xmlns="http://www.w3.org/2000/svg">
<rect width="1024" height="1024" fill="#2F53FF"/>
<path d="M246.74 478.23V395.43H284.23V605.42H246.74V512.73H234.55V604.5H197.52V395.89H234.55V478.23H246.74ZM190.62 461.9C190.62 488.35 175.67 508.36 153.59 515.72V551.83H187.4V586.1L78.61 589.55V551.83H116.33V516.64C92.87 509.74 76.77 489.04 76.77 461.9C76.77 428.32 101.15 405.32 133.81 405.32C166.47 405.32 190.62 428.32 190.62 461.9ZM133.81 438.21C122.54 438.21 113.11 447.87 113.11 461.9C113.11 476.39 122.54 485.82 133.81 485.82C145.08 485.82 154.28 476.39 154.28 461.9C154.28 447.87 145.08 438.21 133.81 438.21ZM496.511 605.42H456.031V395.66H496.511V605.42ZM372.771 599.44C334.361 599.44 310.211 568.16 310.211 498.93C310.211 429.7 334.361 397.73 372.771 397.73C411.411 397.73 435.561 429.7 435.561 498.93C435.561 568.16 411.411 599.44 372.771 599.44ZM372.771 564.71C385.881 564.71 396.691 548.15 396.691 498.7C396.691 449.02 385.881 432.46 372.771 432.46C359.891 432.46 349.541 449.02 349.541 498.7C349.541 548.15 359.891 564.71 372.771 564.71ZM672.33 475.7V395.66H712.81V605.42H672.33V512.04H646.8V475.7H672.33ZM637.14 511.81H570.21V559.19H648.18V590.7L530.42 595.07V478.69H597.35V437.06H530.42V402.56H637.14V511.81ZM929.109 511.81H888.629V395.66H929.109V511.81ZM875.979 498.93L749.019 502.61V398.42H789.269V468.34H875.979V498.93ZM844.929 610.71C786.509 610.71 759.139 594.15 759.139 564.02C759.139 533.89 786.279 516.41 844.929 516.41C903.809 516.41 930.949 533.89 930.949 564.02C930.949 594.15 903.579 610.71 844.929 610.71ZM844.929 577.59C876.439 577.59 888.169 572.76 888.169 564.02C888.169 555.05 876.669 549.76 844.929 549.76C813.419 549.76 801.919 555.05 801.919 564.02C801.919 572.76 813.649 577.59 844.929 577.59Z" fill="white"/>
</svg>
