<svg width="19" height="18" viewBox="0 0 19 18" fill="none" xmlns="http://www.w3.org/2000/svg">
<path d="M4.625 14H6.625V7H4.625V14ZM8.625 14H10.625V4H8.625V14ZM12.625 14H14.625V10H12.625V14ZM2.625 18C2.075 18 1.60417 17.8042 1.2125 17.4125C0.820833 17.0208 0.625 16.55 0.625 16V2C0.625 1.45 0.820833 0.979167 1.2125 0.5875C1.60417 0.195833 2.075 0 2.625 0H16.625C17.175 0 17.6458 0.195833 18.0375 0.5875C18.4292 0.979167 18.625 1.45 18.625 2V16C18.625 16.55 18.4292 17.0208 18.0375 17.4125C17.6458 17.8042 17.175 18 16.625 18H2.625ZM2.625 16H16.625V2H2.625V16Z" fill="#CCCCCC"/>
</svg>
