<svg width="20" height="20" viewBox="0 0 20 20" fill="none" xmlns="http://www.w3.org/2000/svg">
<path d="M3.898 15.2922C4.748 14.6616 5.674 14.1635 6.676 13.798C7.67783 13.4327 8.74417 13.25 9.875 13.25C11.0058 13.25 12.0722 13.4327 13.074 13.798C14.076 14.1635 15.002 14.6616 15.852 15.2922C16.4737 14.6089 16.9662 13.8179 17.3297 12.9192C17.6932 12.0206 17.875 11.0475 17.875 10C17.875 7.78333 17.0958 5.89583 15.5375 4.3375C13.9792 2.77917 12.0917 2 9.875 2C7.65833 2 5.77083 2.77917 4.2125 4.3375C2.65417 5.89583 1.875 7.78333 1.875 10C1.875 11.0475 2.05675 12.0206 2.42025 12.9192C2.78375 13.8179 3.27633 14.6089 3.898 15.2922ZM9.87525 10.75C8.96225 10.75 8.19233 10.4367 7.5655 9.81C6.9385 9.18317 6.625 8.41325 6.625 7.50025C6.625 6.58725 6.93833 5.81733 7.565 5.1905C8.19183 4.5635 8.96175 4.25 9.87475 4.25C10.7877 4.25 11.5577 4.56333 12.1845 5.19C12.8115 5.81683 13.125 6.58675 13.125 7.49975C13.125 8.41275 12.8117 9.18267 12.185 9.8095C11.5582 10.4365 10.7882 10.75 9.87525 10.75ZM9.875 19.5C8.55583 19.5 7.31833 19.2519 6.1625 18.7557C5.00667 18.2596 4.00125 17.5839 3.14625 16.7287C2.29108 15.8737 1.61542 14.8683 1.11925 13.7125C0.623083 12.5567 0.375 11.3192 0.375 10C0.375 8.68083 0.623083 7.44333 1.11925 6.2875C1.61542 5.13167 2.29108 4.12625 3.14625 3.27125C4.00125 2.41608 5.00667 1.74042 6.1625 1.24425C7.31833 0.748084 8.55583 0.5 9.875 0.5C11.1942 0.5 12.4317 0.748084 13.5875 1.24425C14.7433 1.74042 15.7487 2.41608 16.6037 3.27125C17.4589 4.12625 18.1346 5.13167 18.6307 6.2875C19.1269 7.44333 19.375 8.68083 19.375 10C19.375 11.3192 19.1269 12.5567 18.6307 13.7125C18.1346 14.8683 17.4589 15.8737 16.6037 16.7287C15.7487 17.5839 14.7433 18.2596 13.5875 18.7557C12.4317 19.2519 11.1942 19.5 9.875 19.5ZM9.875 18C10.7775 18 11.6477 17.8548 12.4855 17.5645C13.3233 17.274 14.0672 16.8679 14.7172 16.3462C14.0672 15.8436 13.333 15.4519 12.5145 15.1712C11.6958 14.8904 10.816 14.75 9.875 14.75C8.934 14.75 8.05258 14.8887 7.23075 15.1662C6.40892 15.4439 5.67625 15.8372 5.03275 16.3462C5.68275 16.8679 6.42667 17.274 7.2645 17.5645C8.10233 17.8548 8.9725 18 9.875 18ZM9.875 9.25C10.3725 9.25 10.7885 9.08267 11.123 8.748C11.4577 8.4135 11.625 7.9975 11.625 7.5C11.625 7.0025 11.4577 6.5865 11.123 6.252C10.7885 5.91733 10.3725 5.75 9.875 5.75C9.3775 5.75 8.9615 5.91733 8.627 6.252C8.29233 6.5865 8.125 7.0025 8.125 7.5C8.125 7.9975 8.29233 8.4135 8.627 8.748C8.9615 9.08267 9.3775 9.25 9.875 9.25Z" fill="#CCCCCC"/>
</svg>
