<svg width="21" height="18" viewBox="0 0 21 18" fill="none" xmlns="http://www.w3.org/2000/svg">
<path d="M2.125 18C1.575 18 1.10417 17.8042 0.7125 17.4125C0.320833 17.0208 0.125 16.55 0.125 16V2C0.125 1.45 0.320833 0.979167 0.7125 0.5875C1.10417 0.195833 1.575 0 2.125 0H18.125C18.675 0 19.1458 0.195833 19.5375 0.5875C19.9292 0.979167 20.125 1.45 20.125 2V16C20.125 16.55 19.9292 17.0208 19.5375 17.4125C19.1458 17.8042 18.675 18 18.125 18H2.125ZM2.125 16H18.125V2H2.125V16ZM4.125 14H16.125V12H4.125V14ZM4.125 10H8.125V4H4.125V10ZM10.125 10H16.125V8H10.125V10ZM10.125 6H16.125V4H10.125V6Z" fill="#CCCCCC"/>
</svg>
