<svg width="21" height="20" viewBox="0 0 21 20" fill="none" xmlns="http://www.w3.org/2000/svg">
<path d="M12.375 13C12.6583 13 12.9042 12.8958 13.1125 12.6875C13.3208 12.4792 13.425 12.2333 13.425 11.95C13.425 11.6667 13.3208 11.4208 13.1125 11.2125C12.9042 11.0042 12.6583 10.9 12.375 10.9C12.0917 10.9 11.8458 11.0042 11.6375 11.2125C11.4292 11.4208 11.325 11.6667 11.325 11.95C11.325 12.2333 11.4292 12.4792 11.6375 12.6875C11.8458 12.8958 12.0917 13 12.375 13ZM11.625 9.8H13.125C13.125 9.31667 13.175 8.9625 13.275 8.7375C13.375 8.5125 13.6083 8.21667 13.975 7.85C14.475 7.35 14.8083 6.94583 14.975 6.6375C15.1417 6.32917 15.225 5.96667 15.225 5.55C15.225 4.8 14.9625 4.1875 14.4375 3.7125C13.9125 3.2375 13.225 3 12.375 3C11.6917 3 11.0958 3.19167 10.5875 3.575C10.0792 3.95833 9.725 4.46667 9.525 5.1L10.875 5.65C11.025 5.23333 11.2292 4.92083 11.4875 4.7125C11.7458 4.50417 12.0417 4.4 12.375 4.4C12.775 4.4 13.1 4.5125 13.35 4.7375C13.6 4.9625 13.725 5.26667 13.725 5.65C13.725 5.88333 13.6583 6.10417 13.525 6.3125C13.3917 6.52083 13.1583 6.78333 12.825 7.1C12.275 7.58333 11.9375 7.9625 11.8125 8.2375C11.6875 8.5125 11.625 9.03333 11.625 9.8ZM6.375 16C5.825 16 5.35417 15.8042 4.9625 15.4125C4.57083 15.0208 4.375 14.55 4.375 14V2C4.375 1.45 4.57083 0.979167 4.9625 0.5875C5.35417 0.195833 5.825 0 6.375 0H18.375C18.925 0 19.3958 0.195833 19.7875 0.5875C20.1792 0.979167 20.375 1.45 20.375 2V14C20.375 14.55 20.1792 15.0208 19.7875 15.4125C19.3958 15.8042 18.925 16 18.375 16H6.375ZM6.375 14H18.375V2H6.375V14ZM2.375 20C1.825 20 1.35417 19.8042 0.9625 19.4125C0.570833 19.0208 0.375 18.55 0.375 18V4H2.375V18H16.375V20H2.375Z" fill="black"/>
</svg>
