<svg width="6" height="10" viewBox="0 0 6 10" fill="none" xmlns="http://www.w3.org/2000/svg">
<path fill-rule="evenodd" clip-rule="evenodd" d="M5.47775 4.05239C5.66502 4.23989 5.77021 4.49405 5.77021 4.75906C5.77021 5.02406 5.66502 5.27822 5.47775 5.46572L1.70709 9.23772C1.51949 9.42523 1.26509 9.53054 0.999849 9.53047C0.73461 9.53041 0.48026 9.42499 0.292752 9.23739C0.105244 9.04979 -6.24843e-05 8.79539 2.78156e-08 8.53015C6.25399e-05 8.26491 0.105488 8.01056 0.293085 7.82306L3.35708 4.75906L0.293085 1.69506C0.110836 1.50654 0.00992085 1.25398 0.0120748 0.991785C0.0142288 0.729586 0.119279 0.478723 0.304601 0.293227C0.489922 0.10773 0.740686 0.0024432 1.00288 4.19865e-05C1.26508 -0.00235922 1.51773 0.0983177 1.70642 0.280389L5.47842 4.05172L5.47775 4.05239Z" fill="black"/>
</svg>
